<mxfile host="app.diagrams.net" agent="Mozilla/5.0 (Windows NT 10.0; Win64; x64) AppleWebKit/537.36 (KHTML, like Gecko) Chrome/131.0.0.0 Safari/537.36" version="26.0.2">
  <diagram id="C5RBs43oDa-KdzZeNtuy" name="Page-1">
    <mxGraphModel dx="913" dy="564" grid="1" gridSize="10" guides="1" tooltips="1" connect="1" arrows="1" fold="1" page="1" pageScale="1" pageWidth="827" pageHeight="1169" math="0" shadow="0">
      <root>
        <mxCell id="WIyWlLk6GJQsqaUBKTNV-0" />
        <mxCell id="WIyWlLk6GJQsqaUBKTNV-1" parent="WIyWlLk6GJQsqaUBKTNV-0" />
        <mxCell id="OtmW3crzg91MIFwsoXp0-22" value="" style="swimlane;startSize=0;fillColor=#d5e8d4;strokeColor=#82b366;fillStyle=hatch;" vertex="1" parent="WIyWlLk6GJQsqaUBKTNV-1">
          <mxGeometry x="540" y="30" width="260" height="260" as="geometry" />
        </mxCell>
        <mxCell id="OtmW3crzg91MIFwsoXp0-6" value="&lt;span style=&quot;background-color: transparent; color: light-dark(rgb(0, 0, 0), rgb(255, 255, 255));&quot;&gt;01&lt;/span&gt;" style="rhombus;whiteSpace=wrap;html=1;gradientColor=light-dark(#82b366, #295a0d);" vertex="1" parent="OtmW3crzg91MIFwsoXp0-22">
          <mxGeometry x="220" y="60" width="40" height="40" as="geometry" />
        </mxCell>
        <mxCell id="OtmW3crzg91MIFwsoXp0-11" value="RAW_ANY" style="text;html=1;align=center;verticalAlign=middle;whiteSpace=wrap;rounded=0;rotation=0;shadow=0;" vertex="1" parent="OtmW3crzg91MIFwsoXp0-22">
          <mxGeometry x="10" y="240" width="60" height="10" as="geometry" />
        </mxCell>
        <mxCell id="OtmW3crzg91MIFwsoXp0-3" value="" style="edgeStyle=orthogonalEdgeStyle;rounded=0;orthogonalLoop=1;jettySize=auto;html=1;" edge="1" parent="WIyWlLk6GJQsqaUBKTNV-1" source="OtmW3crzg91MIFwsoXp0-0" target="OtmW3crzg91MIFwsoXp0-2">
          <mxGeometry relative="1" as="geometry" />
        </mxCell>
        <mxCell id="OtmW3crzg91MIFwsoXp0-0" value="HEADER&lt;div&gt;&lt;span style=&quot;background-color: transparent; color: light-dark(rgb(0, 0, 0), rgb(255, 255, 255));&quot; class=&quot;hljs-number&quot;&gt;43&lt;/span&gt;&lt;span style=&quot;background-color: transparent; color: light-dark(rgb(0, 0, 0), rgb(255, 255, 255));&quot;&gt; &lt;/span&gt;&lt;span style=&quot;background-color: transparent; color: light-dark(rgb(0, 0, 0), rgb(255, 255, 255));&quot; class=&quot;hljs-number&quot;&gt;4F&lt;/span&gt;&lt;span style=&quot;background-color: transparent; color: light-dark(rgb(0, 0, 0), rgb(255, 255, 255));&quot;&gt; &lt;/span&gt;&lt;span style=&quot;background-color: transparent; color: light-dark(rgb(0, 0, 0), rgb(255, 255, 255));&quot; class=&quot;hljs-number&quot;&gt;46&lt;/span&gt;&lt;span style=&quot;background-color: transparent; color: light-dark(rgb(0, 0, 0), rgb(255, 255, 255));&quot;&gt; &lt;/span&gt;&lt;span style=&quot;background-color: transparent; color: light-dark(rgb(0, 0, 0), rgb(255, 255, 255));&quot; class=&quot;hljs-number&quot;&gt;54&lt;/span&gt;&lt;/div&gt;" style="rounded=0;whiteSpace=wrap;html=1;" vertex="1" parent="WIyWlLk6GJQsqaUBKTNV-1">
          <mxGeometry x="360" y="40" width="160" height="40" as="geometry" />
        </mxCell>
        <mxCell id="OtmW3crzg91MIFwsoXp0-5" value="" style="edgeStyle=orthogonalEdgeStyle;rounded=0;orthogonalLoop=1;jettySize=auto;html=1;" edge="1" parent="WIyWlLk6GJQsqaUBKTNV-1" source="OtmW3crzg91MIFwsoXp0-2" target="OtmW3crzg91MIFwsoXp0-4">
          <mxGeometry relative="1" as="geometry" />
        </mxCell>
        <mxCell id="OtmW3crzg91MIFwsoXp0-2" value="VERSION&lt;div&gt;00 01&lt;/div&gt;" style="whiteSpace=wrap;html=1;rounded=0;" vertex="1" parent="WIyWlLk6GJQsqaUBKTNV-1">
          <mxGeometry x="360" y="120" width="80" height="40" as="geometry" />
        </mxCell>
        <mxCell id="OtmW3crzg91MIFwsoXp0-20" style="edgeStyle=orthogonalEdgeStyle;rounded=0;orthogonalLoop=1;jettySize=auto;html=1;entryX=0.5;entryY=0;entryDx=0;entryDy=0;" edge="1" parent="WIyWlLk6GJQsqaUBKTNV-1" source="OtmW3crzg91MIFwsoXp0-4">
          <mxGeometry relative="1" as="geometry">
            <mxPoint x="480" y="200" as="targetPoint" />
          </mxGeometry>
        </mxCell>
        <mxCell id="OtmW3crzg91MIFwsoXp0-4" value="TYPE&lt;div&gt;01&lt;/div&gt;" style="whiteSpace=wrap;html=1;rounded=0;" vertex="1" parent="WIyWlLk6GJQsqaUBKTNV-1">
          <mxGeometry x="480" y="120" width="40" height="40" as="geometry" />
        </mxCell>
        <mxCell id="OtmW3crzg91MIFwsoXp0-7" style="edgeStyle=orthogonalEdgeStyle;rounded=0;orthogonalLoop=1;jettySize=auto;html=1;shape=link;strokeWidth=1;" edge="1" parent="WIyWlLk6GJQsqaUBKTNV-1" source="OtmW3crzg91MIFwsoXp0-4" target="OtmW3crzg91MIFwsoXp0-6">
          <mxGeometry relative="1" as="geometry">
            <mxPoint x="760" y="60" as="targetPoint" />
            <Array as="points">
              <mxPoint x="550" y="140" />
              <mxPoint x="550" y="40" />
              <mxPoint x="780" y="40" />
            </Array>
          </mxGeometry>
        </mxCell>
        <mxCell id="OtmW3crzg91MIFwsoXp0-15" value="&lt;h1 style=&quot;margin-top: 0px;&quot;&gt;COFT File Spec&lt;/h1&gt;&lt;p&gt;&lt;span style=&quot;background-color: transparent; color: light-dark(rgb(0, 0, 0), rgb(255, 255, 255));&quot;&gt;Eookiecookie153&#39;s&amp;nbsp;&lt;/span&gt;Common One-Fifty-Three &lt;span style=&quot;background-color: transparent; color: light-dark(rgb(0, 0, 0), rgb(255, 255, 255));&quot;&gt;file format for&amp;nbsp;&lt;/span&gt;&lt;span style=&quot;background-color: transparent; color: light-dark(rgb(0, 0, 0), rgb(255, 255, 255));&quot;&gt;storing binary in a lossless format.&lt;/span&gt;&lt;/p&gt;" style="text;html=1;whiteSpace=wrap;overflow=hidden;rounded=0;" vertex="1" parent="WIyWlLk6GJQsqaUBKTNV-1">
          <mxGeometry x="30" y="30" width="180" height="120" as="geometry" />
        </mxCell>
      </root>
    </mxGraphModel>
  </diagram>
</mxfile>
